<?xml version="1.0" encoding="UTF-8"?>
<svg xmlns="http://www.w3.org/2000/svg" xmlns:svg="http://www.w3.org/2000/svg" xmlns:sodipodi="http://sodipodi.sourceforge.net/DTD/sodipodi-0.dtd" xmlns:rdf="http://www.w3.org/1999/02/22-rdf-syntax-ns#" xmlns:inkscape="http://www.inkscape.org/namespaces/inkscape" xmlns:dc="http://purl.org/dc/elements/1.1/" xmlns:cc="http://creativecommons.org/ns#" version="1.1" viewBox="0 0 354.6 370.2">
  <!-- Generator: Adobe Illustrator 30.7.0, SVG Export Plug-In . SVG Version: 2.1.4 Build 114)  -->
  <g id="Layer_1" inkscape:output_extension="org.inkscape.output.svg.inkscape" inkscape:version="0.48.4 r9939" sodipodi:docname="Warner_Bros_logo.svg" sodipodi:version="0.32">
    <sodipodi:namedview id="base" bordercolor="#666666" borderopacity="1.0" gridtolerance="10.0" guidetolerance="10.0" inkscape:current-layer="Layer_1" inkscape:cx="355.80569" inkscape:cy="369.95031" inkscape:pageopacity="0.0" inkscape:pageshadow="2" inkscape:window-height="706" inkscape:window-maximized="1" inkscape:window-width="1360" inkscape:window-x="-8" inkscape:window-y="-8" inkscape:zoom="256" objecttolerance="10.0" pagecolor="#ffffff" showgrid="false"/>
    <path id="path5" d="M177.3,0c-8.7,1.8-84.9,11.8-94.4,16.6-2.2,4.4-6.8,18-8.2,20.2-6.1,1.3-31,6-32.5,6.9-.9,2.6-6.6,13.8-7.9,15.2-5.3,1.3-29.8,5.9-32.8,8.1-1.7,10.5-8.4,115.6,35.4,184.4,43.8,68.7,120.3,114.5,140.5,118.9h.2c20.1-4.4,96.6-50.1,140.3-118.9,43.8-68.7,37.3-173.9,35.5-184.4-3.1-2.2-27.6-6.7-32.8-8.1-1.3-1.3-7-12.5-7.9-15.2-1.6-.9-26.4-5.6-32.5-6.9-1.4-2.2-6-15.8-8.2-20.2C262.3,11.8,186,1.9,177.3,0ZM177.3,26.8c7.5,1.6,72.7,10.3,80.8,14.4,1.9,3.7,5.7,15.4,6.9,17.2,5.2,1.1,26.6,5.1,27.9,5.8.7,2.2,5.5,12,6.6,13.1,4.5,1.1,25.5,4.9,28.1,6.8,1.5,9,7.1,98.8-30.3,157.5-37.4,58.8-102.8,97.9-120,101.7h-.2c-17.2-3.7-82.5-42.9-120-101.7C19.9,182.9,25.5,93.1,27,84.1c2.6-1.9,23.6-5.7,28.1-6.8,1.1-1.1,5.9-10.9,6.6-13.1,1.3-.8,22.5-4.7,27.8-5.8,1.2-1.8,5.2-13.5,7.1-17.2,8.1-4.1,73.3-12.8,80.7-14.4h0Z" inkscape:connector-curvature="0"/>
    <path id="path9" d="M189.3,55.6c-2.5.2-2.8,2-2.8,2.7-.5,84.1-.3,173.3-.9,259.7.6,2.7,4.9-1.5,7.4-2.8,31.9-17.5,131.4-113.9,74.2-148.4,43.8-28.6,36-56,16.6-70.9-40.1-30.9-85.9-38.5-91.2-39.9-1.3-.4-2.3-.4-3.2-.3h0ZM215.9,90.1c.6-.3,26.3,9.2,40.4,18.8,16.1,11,10.7,21.6,1.3,27.9-5.1,3.5-36.7,26.2-42,27.5-.1-4.4-.1-53.8.3-74.2h0ZM239.5,186.3c3.5.1,6.9,1.2,9.3,3.8,2.2,2.1,11.8,12.5-8.7,42.1-7.6,13.5-23.6,30.4-25.4,32-.2,0-.3-.3-.5-.2.2-9.7,0-56.4.5-69.5,1.1-.6,14.2-8.7,24.8-8.4h0Z" inkscape:connector-curvature="0"/>
    <path id="path15" d="M80.5,85.8c-2.6,1.1-25,15.3-27.2,17.6-.6,19.8,4.7,73.3,24.3,115,2.5,5.3,5.2,10.2,8.1,14.7,5.6,9.6,5.9,8.9,12.4-.4,4.5-6.1,11-15.1,12.6-17,2.2,7.5,16.7,54.1,37.1,82.3,9,12.5,22.9,24.3,22.9,19.5-.6-47.6-1.9-253.9-.4-262.3-6-.1-25.8,2.4-29.7,4.5-.3,7.5,2.7,149,.8,165-13.8-33.7-18.5-122.6-15.8-159.2-7.5,1.5-25.7,8.8-28.3,11.4-3.4,6.7,1.2,80.6,6,105.4-1.6,2.6-6.3,9.6-7.1,10.7-9.5-17-18.5-69.7-15.7-107.3Z" inkscape:connector-curvature="0"/>
  </g>
</svg>